<?xml version="1.0" encoding="utf-8"?>
<!-- Generator: Adobe Illustrator 16.0.0, SVG Export Plug-In . SVG Version: 6.00 Build 0)  -->
<!DOCTYPE svg PUBLIC "-//W3C//DTD SVG 1.1//EN" "http://www.w3.org/Graphics/SVG/1.1/DTD/svg11.dtd">
<svg version="1.1" id="Layer_1" xmlns="http://www.w3.org/2000/svg" xmlns:xlink="http://www.w3.org/1999/xlink" x="0px" y="0px"
	 width="200px" height="200px" viewBox="0 0 200 200" enable-background="new 0 0 200 200" xml:space="preserve">
<circle id="circle_5_" fill="#363636" cx="100" cy="100" r="100"/>
<polygon fill="#DEDEDE" points="128.071,53 126.877,62.977 109.754,64.772 109.754,53 89.754,53 89.754,64.772 72.877,62.977 
	71.928,53 48,53 61,98 139,98 152,53 "/>
<g>
	<defs>
		<polygon id="SVGID_1_" points="128.071,53 126.877,62.977 109.754,64.772 109.754,53 89.754,53 89.754,64.772 72.877,62.977 
			71.928,53 48,53 61,98 139,98 152,53 		"/>
	</defs>
	<clipPath id="SVGID_2_">
		<use xlink:href="#SVGID_1_"  overflow="visible"/>
	</clipPath>
	<g clip-path="url(#SVGID_2_)">
		<path fill="#B5B5B5" d="M66.754,63c0,0.552-0.447,1-1,1h-20c-0.553,0-1-0.448-1-1v-8c0-0.552,0.447-1,1-1h20c0.553,0,1,0.448,1,1
			V63z"/>
		<path fill="#CBCBCB" d="M89.754,63c0,0.552-0.447,1-1,1h-20c-0.553,0-1-0.448-1-1v-8c0-0.552,0.447-1,1-1h20c0.553,0,1,0.448,1,1
			V63z"/>
		<path fill="#B5B5B5" d="M112.754,63c0,0.552-0.447,1-1,1h-20c-0.553,0-1-0.448-1-1v-8c0-0.552,0.447-1,1-1h20c0.553,0,1,0.448,1,1
			V63z"/>
		<path fill="#CBCBCB" d="M135.754,63c0,0.552-0.447,1-1,1h-20c-0.553,0-1-0.448-1-1v-8c0-0.552,0.447-1,1-1h20c0.553,0,1,0.448,1,1
			V63z"/>
		<path fill="#B5B5B5" d="M158.754,63c0,0.552-0.447,1-1,1h-20c-0.553,0-1-0.448-1-1v-8c0-0.552,0.447-1,1-1h20c0.553,0,1,0.448,1,1
			V63z"/>
		<path fill="#CBCBCB" d="M70.754,74c0,0.552-0.447,1-1,1h-20c-0.553,0-1-0.448-1-1v-8c0-0.552,0.447-1,1-1h20c0.553,0,1,0.448,1,1
			V74z"/>
		<path fill="#B5B5B5" d="M93.754,74c0,0.552-0.447,1-1,1h-20c-0.553,0-1-0.448-1-1v-8c0-0.552,0.447-1,1-1h20c0.553,0,1,0.448,1,1
			V74z"/>
		<path fill="#CBCBCB" d="M116.754,74c0,0.552-0.447,1-1,1h-20c-0.553,0-1-0.448-1-1v-8c0-0.552,0.447-1,1-1h20c0.553,0,1,0.448,1,1
			V74z"/>
		<path fill="#B5B5B5" d="M139.754,74c0,0.552-0.447,1-1,1h-20c-0.553,0-1-0.448-1-1v-8c0-0.552,0.447-1,1-1h20c0.553,0,1,0.448,1,1
			V74z"/>
		<path fill="#CBCBCB" d="M162.754,74c0,0.552-0.447,1-1,1h-20c-0.553,0-1-0.448-1-1v-8c0-0.552,0.447-1,1-1h20c0.553,0,1,0.448,1,1
			V74z"/>
		<path fill="#B5B5B5" d="M64.754,85c0,0.552-0.447,1-1,1h-20c-0.553,0-1-0.448-1-1v-8c0-0.552,0.447-1,1-1h20c0.553,0,1,0.448,1,1
			V85z"/>
		<path fill="#CBCBCB" d="M87.754,85c0,0.552-0.447,1-1,1h-20c-0.553,0-1-0.448-1-1v-8c0-0.552,0.447-1,1-1h20c0.553,0,1,0.448,1,1
			V85z"/>
		<path fill="#B5B5B5" d="M110.754,85c0,0.552-0.447,1-1,1h-20c-0.553,0-1-0.448-1-1v-8c0-0.552,0.447-1,1-1h20c0.553,0,1,0.448,1,1
			V85z"/>
		<path fill="#CBCBCB" d="M133.754,85c0,0.552-0.447,1-1,1h-20c-0.553,0-1-0.448-1-1v-8c0-0.552,0.447-1,1-1h20c0.553,0,1,0.448,1,1
			V85z"/>
		<path fill="#B5B5B5" d="M156.754,85c0,0.552-0.447,1-1,1h-20c-0.553,0-1-0.448-1-1v-8c0-0.552,0.447-1,1-1h20c0.553,0,1,0.448,1,1
			V85z"/>
		<path fill="#CBCBCB" d="M68.754,96c0,0.552-0.447,1-1,1h-20c-0.553,0-1-0.448-1-1v-8c0-0.552,0.447-1,1-1h20c0.553,0,1,0.448,1,1
			V96z"/>
		<path fill="#B5B5B5" d="M91.754,96c0,0.552-0.447,1-1,1h-20c-0.553,0-1-0.448-1-1v-8c0-0.552,0.447-1,1-1h20c0.553,0,1,0.448,1,1
			V96z"/>
		<path fill="#CBCBCB" d="M114.754,96c0,0.552-0.447,1-1,1h-20c-0.553,0-1-0.448-1-1v-8c0-0.552,0.447-1,1-1h20c0.553,0,1,0.448,1,1
			V96z"/>
		<path fill="#B5B5B5" d="M137.754,96c0,0.552-0.447,1-1,1h-20c-0.553,0-1-0.448-1-1v-8c0-0.552,0.447-1,1-1h20c0.553,0,1,0.448,1,1
			V96z"/>
		<path fill="#CBCBCB" d="M160.754,96c0,0.552-0.447,1-1,1h-20c-0.553,0-1-0.448-1-1v-8c0-0.552,0.447-1,1-1h20c0.553,0,1,0.448,1,1
			V96z"/>
	</g>
</g>
<path fill="#DEDEDE" d="M55.92,189.779C69.219,196.32,84.178,200,100,200c15.635,0,30.432-3.592,43.612-9.99L133.754,98h-68
	L55.92,189.779z"/>
<g>
	<defs>
		<path id="SVGID_3_" d="M55.92,189.779C69.219,196.32,84.178,200,100,200c15.635,0,30.432-3.592,43.612-9.99L133.754,98h-68
			L55.92,189.779z"/>
	</defs>
	<clipPath id="SVGID_4_">
		<use xlink:href="#SVGID_3_"  overflow="visible"/>
	</clipPath>
	<g clip-path="url(#SVGID_4_)">
		<g>
			<path fill="#B5B5B5" d="M71.754,108c0,0.552-0.447,1-1,1h-20c-0.553,0-1-0.448-1-1v-8c0-0.552,0.447-1,1-1h20
				c0.553,0,1,0.448,1,1V108z"/>
			<path fill="#CBCBCB" d="M94.754,108c0,0.552-0.447,1-1,1h-20c-0.553,0-1-0.448-1-1v-8c0-0.552,0.447-1,1-1h20
				c0.553,0,1,0.448,1,1V108z"/>
			<path fill="#B5B5B5" d="M117.754,108c0,0.552-0.447,1-1,1h-20c-0.553,0-1-0.448-1-1v-8c0-0.552,0.447-1,1-1h20
				c0.553,0,1,0.448,1,1V108z"/>
			<path fill="#CBCBCB" d="M140.754,108c0,0.552-0.447,1-1,1h-20c-0.553,0-1-0.448-1-1v-8c0-0.552,0.447-1,1-1h20
				c0.553,0,1,0.448,1,1V108z"/>
			<path fill="#B5B5B5" d="M163.754,108c0,0.552-0.447,1-1,1h-20c-0.553,0-1-0.448-1-1v-8c0-0.552,0.447-1,1-1h20
				c0.553,0,1,0.448,1,1V108z"/>
			<path fill="#CBCBCB" d="M75.754,119c0,0.553-0.447,1-1,1h-20c-0.553,0-1-0.447-1-1v-8c0-0.552,0.447-1,1-1h20
				c0.553,0,1,0.448,1,1V119z"/>
			<path fill="#B5B5B5" d="M98.754,119c0,0.553-0.447,1-1,1h-20c-0.553,0-1-0.447-1-1v-8c0-0.552,0.447-1,1-1h20
				c0.553,0,1,0.448,1,1V119z"/>
			<path fill="#CBCBCB" d="M121.754,119c0,0.553-0.447,1-1,1h-20c-0.553,0-1-0.447-1-1v-8c0-0.552,0.447-1,1-1h20
				c0.553,0,1,0.448,1,1V119z"/>
			<path fill="#B5B5B5" d="M144.754,119c0,0.553-0.447,1-1,1h-20c-0.553,0-1-0.447-1-1v-8c0-0.552,0.447-1,1-1h20
				c0.553,0,1,0.448,1,1V119z"/>
			<path fill="#CBCBCB" d="M167.754,119c0,0.553-0.447,1-1,1h-20c-0.553,0-1-0.447-1-1v-8c0-0.552,0.447-1,1-1h20
				c0.553,0,1,0.448,1,1V119z"/>
			<path fill="#B5B5B5" d="M69.754,130c0,0.553-0.447,1-1,1h-20c-0.553,0-1-0.447-1-1v-8c0-0.553,0.447-1,1-1h20
				c0.553,0,1,0.447,1,1V130z"/>
			<path fill="#CBCBCB" d="M92.754,130c0,0.553-0.447,1-1,1h-20c-0.553,0-1-0.447-1-1v-8c0-0.553,0.447-1,1-1h20
				c0.553,0,1,0.447,1,1V130z"/>
			<path fill="#B5B5B5" d="M115.754,130c0,0.553-0.447,1-1,1h-20c-0.553,0-1-0.447-1-1v-8c0-0.553,0.447-1,1-1h20
				c0.553,0,1,0.447,1,1V130z"/>
			<path fill="#CBCBCB" d="M138.754,130c0,0.553-0.447,1-1,1h-20c-0.553,0-1-0.447-1-1v-8c0-0.553,0.447-1,1-1h20
				c0.553,0,1,0.447,1,1V130z"/>
			<path fill="#B5B5B5" d="M161.754,130c0,0.553-0.447,1-1,1h-20c-0.553,0-1-0.447-1-1v-8c0-0.553,0.447-1,1-1h20
				c0.553,0,1,0.447,1,1V130z"/>
			<path fill="#CBCBCB" d="M73.754,141c0,0.553-0.447,1-1,1h-20c-0.553,0-1-0.447-1-1v-8c0-0.553,0.447-1,1-1h20
				c0.553,0,1,0.447,1,1V141z"/>
			<path fill="#B5B5B5" d="M96.754,141c0,0.553-0.447,1-1,1h-20c-0.553,0-1-0.447-1-1v-8c0-0.553,0.447-1,1-1h20
				c0.553,0,1,0.447,1,1V141z"/>
			<path fill="#CBCBCB" d="M119.754,141c0,0.553-0.447,1-1,1h-20c-0.553,0-1-0.447-1-1v-8c0-0.553,0.447-1,1-1h20
				c0.553,0,1,0.447,1,1V141z"/>
			<path fill="#B5B5B5" d="M142.754,141c0,0.553-0.447,1-1,1h-20c-0.553,0-1-0.447-1-1v-8c0-0.553,0.447-1,1-1h20
				c0.553,0,1,0.447,1,1V141z"/>
			<path fill="#CBCBCB" d="M165.754,141c0,0.553-0.447,1-1,1h-20c-0.553,0-1-0.447-1-1v-8c0-0.553,0.447-1,1-1h20
				c0.553,0,1,0.447,1,1V141z"/>
		</g>
		<g>
			<path fill="#B5B5B5" d="M65.754,152c0,0.553-0.447,1-1,1h-20c-0.553,0-1-0.447-1-1v-8c0-0.553,0.447-1,1-1h20
				c0.553,0,1,0.447,1,1V152z"/>
			<path fill="#CBCBCB" d="M88.754,152c0,0.553-0.447,1-1,1h-20c-0.553,0-1-0.447-1-1v-8c0-0.553,0.447-1,1-1h20
				c0.553,0,1,0.447,1,1V152z"/>
			<path fill="#B5B5B5" d="M111.754,152c0,0.553-0.447,1-1,1h-20c-0.553,0-1-0.447-1-1v-8c0-0.553,0.447-1,1-1h20
				c0.553,0,1,0.447,1,1V152z"/>
			<path fill="#CBCBCB" d="M134.754,152c0,0.553-0.447,1-1,1h-20c-0.553,0-1-0.447-1-1v-8c0-0.553,0.447-1,1-1h20
				c0.553,0,1,0.447,1,1V152z"/>
			<path fill="#B5B5B5" d="M157.754,152c0,0.553-0.447,1-1,1h-20c-0.553,0-1-0.447-1-1v-8c0-0.553,0.447-1,1-1h20
				c0.553,0,1,0.447,1,1V152z"/>
			<path fill="#CBCBCB" d="M69.754,163c0,0.553-0.447,1-1,1h-20c-0.553,0-1-0.447-1-1v-8c0-0.553,0.447-1,1-1h20
				c0.553,0,1,0.447,1,1V163z"/>
			<path fill="#B5B5B5" d="M92.754,163c0,0.553-0.447,1-1,1h-20c-0.553,0-1-0.447-1-1v-8c0-0.553,0.447-1,1-1h20
				c0.553,0,1,0.447,1,1V163z"/>
			<path fill="#CBCBCB" d="M115.754,163c0,0.553-0.447,1-1,1h-20c-0.553,0-1-0.447-1-1v-8c0-0.553,0.447-1,1-1h20
				c0.553,0,1,0.447,1,1V163z"/>
			<path fill="#B5B5B5" d="M138.754,163c0,0.553-0.447,1-1,1h-20c-0.553,0-1-0.447-1-1v-8c0-0.553,0.447-1,1-1h20
				c0.553,0,1,0.447,1,1V163z"/>
			<path fill="#CBCBCB" d="M161.754,163c0,0.553-0.447,1-1,1h-20c-0.553,0-1-0.447-1-1v-8c0-0.553,0.447-1,1-1h20
				c0.553,0,1,0.447,1,1V163z"/>
			<path fill="#B5B5B5" d="M63.754,174c0,0.553-0.447,1-1,1h-20c-0.553,0-1-0.447-1-1v-8c0-0.553,0.447-1,1-1h20
				c0.553,0,1,0.447,1,1V174z"/>
			<path fill="#CBCBCB" d="M86.754,174c0,0.553-0.447,1-1,1h-20c-0.553,0-1-0.447-1-1v-8c0-0.553,0.447-1,1-1h20
				c0.553,0,1,0.447,1,1V174z"/>
			<path fill="#B5B5B5" d="M109.754,174c0,0.553-0.447,1-1,1h-20c-0.553,0-1-0.447-1-1v-8c0-0.553,0.447-1,1-1h20
				c0.553,0,1,0.447,1,1V174z"/>
			<path fill="#CBCBCB" d="M132.754,174c0,0.553-0.447,1-1,1h-20c-0.553,0-1-0.447-1-1v-8c0-0.553,0.447-1,1-1h20
				c0.553,0,1,0.447,1,1V174z"/>
			<path fill="#B5B5B5" d="M155.754,174c0,0.553-0.447,1-1,1h-20c-0.553,0-1-0.447-1-1v-8c0-0.553,0.447-1,1-1h20
				c0.553,0,1,0.447,1,1V174z"/>
			<path fill="#CBCBCB" d="M67.754,185c0,0.553-0.447,1-1,1h-20c-0.553,0-1-0.447-1-1v-8c0-0.553,0.447-1,1-1h20
				c0.553,0,1,0.447,1,1V185z"/>
			<path fill="#B5B5B5" d="M90.754,185c0,0.553-0.447,1-1,1h-20c-0.553,0-1-0.447-1-1v-8c0-0.553,0.447-1,1-1h20
				c0.553,0,1,0.447,1,1V185z"/>
			<path fill="#CBCBCB" d="M113.754,185c0,0.553-0.447,1-1,1h-20c-0.553,0-1-0.447-1-1v-8c0-0.553,0.447-1,1-1h20
				c0.553,0,1,0.447,1,1V185z"/>
			<path fill="#B5B5B5" d="M136.754,185c0,0.553-0.447,1-1,1h-20c-0.553,0-1-0.447-1-1v-8c0-0.553,0.447-1,1-1h20
				c0.553,0,1,0.447,1,1V185z"/>
			<path fill="#CBCBCB" d="M159.754,185c0,0.553-0.447,1-1,1h-20c-0.553,0-1-0.447-1-1v-8c0-0.553,0.447-1,1-1h20
				c0.553,0,1,0.447,1,1V185z"/>
		</g>
		<g>
			<path fill="#B5B5B5" d="M55.754,196c0,0.553-0.447,1-1,1h-20c-0.553,0-1-0.447-1-1v-8c0-0.553,0.447-1,1-1h20
				c0.553,0,1,0.447,1,1V196z"/>
			<path fill="#CBCBCB" d="M78.754,196c0,0.553-0.447,1-1,1h-20c-0.553,0-1-0.447-1-1v-8c0-0.553,0.447-1,1-1h20
				c0.553,0,1,0.447,1,1V196z"/>
			<path fill="#B5B5B5" d="M101.754,196c0,0.553-0.447,1-1,1h-20c-0.553,0-1-0.447-1-1v-8c0-0.553,0.447-1,1-1h20
				c0.553,0,1,0.447,1,1V196z"/>
			<path fill="#CBCBCB" d="M124.754,196c0,0.553-0.447,1-1,1h-20c-0.553,0-1-0.447-1-1v-8c0-0.553,0.447-1,1-1h20
				c0.553,0,1,0.447,1,1V196z"/>
			<path fill="#B5B5B5" d="M147.754,196c0,0.553-0.447,1-1,1h-20c-0.553,0-1-0.447-1-1v-8c0-0.553,0.447-1,1-1h20
				c0.553,0,1,0.447,1,1V196z"/>
			<path fill="#CBCBCB" d="M59.754,207c0,0.553-0.447,1-1,1h-20c-0.553,0-1-0.447-1-1v-8c0-0.553,0.447-1,1-1h20
				c0.553,0,1,0.447,1,1V207z"/>
			<path fill="#B5B5B5" d="M82.754,207c0,0.553-0.447,1-1,1h-20c-0.553,0-1-0.447-1-1v-8c0-0.553,0.447-1,1-1h20
				c0.553,0,1,0.447,1,1V207z"/>
			<path fill="#CBCBCB" d="M105.754,207c0,0.553-0.447,1-1,1h-20c-0.553,0-1-0.447-1-1v-8c0-0.553,0.447-1,1-1h20
				c0.553,0,1,0.447,1,1V207z"/>
			<path fill="#B5B5B5" d="M128.754,207c0,0.553-0.447,1-1,1h-20c-0.553,0-1-0.447-1-1v-8c0-0.553,0.447-1,1-1h20
				c0.553,0,1,0.447,1,1V207z"/>
			<path fill="#CBCBCB" d="M151.754,207c0,0.553-0.447,1-1,1h-20c-0.553,0-1-0.447-1-1v-8c0-0.553,0.447-1,1-1h20
				c0.553,0,1,0.447,1,1V207z"/>
			<path fill="#B5B5B5" d="M53.754,218c0,0.553-0.447,1-1,1h-20c-0.553,0-1-0.447-1-1v-8c0-0.553,0.447-1,1-1h20
				c0.553,0,1,0.447,1,1V218z"/>
			<path fill="#CBCBCB" d="M76.754,218c0,0.553-0.447,1-1,1h-20c-0.553,0-1-0.447-1-1v-8c0-0.553,0.447-1,1-1h20
				c0.553,0,1,0.447,1,1V218z"/>
			<path fill="#B5B5B5" d="M99.754,218c0,0.553-0.447,1-1,1h-20c-0.553,0-1-0.447-1-1v-8c0-0.553,0.447-1,1-1h20
				c0.553,0,1,0.447,1,1V218z"/>
			<path fill="#CBCBCB" d="M122.754,218c0,0.553-0.447,1-1,1h-20c-0.553,0-1-0.447-1-1v-8c0-0.553,0.447-1,1-1h20
				c0.553,0,1,0.447,1,1V218z"/>
			<path fill="#B5B5B5" d="M145.754,218c0,0.553-0.447,1-1,1h-20c-0.553,0-1-0.447-1-1v-8c0-0.553,0.447-1,1-1h20
				c0.553,0,1,0.447,1,1V218z"/>
			<path fill="#CBCBCB" d="M57.754,229c0,0.553-0.447,1-1,1h-20c-0.553,0-1-0.447-1-1v-8c0-0.553,0.447-1,1-1h20
				c0.553,0,1,0.447,1,1V229z"/>
			<path fill="#B5B5B5" d="M80.754,229c0,0.553-0.447,1-1,1h-20c-0.553,0-1-0.447-1-1v-8c0-0.553,0.447-1,1-1h20
				c0.553,0,1,0.447,1,1V229z"/>
			<path fill="#CBCBCB" d="M103.754,229c0,0.553-0.447,1-1,1h-20c-0.553,0-1-0.447-1-1v-8c0-0.553,0.447-1,1-1h20
				c0.553,0,1,0.447,1,1V229z"/>
			<path fill="#B5B5B5" d="M126.754,229c0,0.553-0.447,1-1,1h-20c-0.553,0-1-0.447-1-1v-8c0-0.553,0.447-1,1-1h20
				c0.553,0,1,0.447,1,1V229z"/>
			<path fill="#CBCBCB" d="M149.754,229c0,0.553-0.447,1-1,1h-20c-0.553,0-1-0.447-1-1v-8c0-0.553,0.447-1,1-1h20
				c0.553,0,1,0.447,1,1V229z"/>
		</g>
	</g>
</g>
<rect x="81.754" y="161" opacity="0.3" width="36" height="4"/>
<rect x="79.754" y="157" fill="#D9D9D9" width="40" height="4"/>
<g id="flag_4_">
	<polygon id="pole_4_" fill="#9B9B9B" points="98.754,24 100.754,24 100.754,53 98.754,53 98.754,24 	"/>
	<polygon id="flag_green_4_" fill="#ED1C24" points="116.093,27.898 120.258,24 98.754,24 98.754,32 120.174,32 116.093,27.898 	"/>
</g>
<path fill-rule="evenodd" clip-rule="evenodd" fill="#EFEFEF" d="M117.661,161c-0.036-12,2.613-43.429-17.906-43.429
	S81.885,149,81.848,161H117.661z"/>
<path fill-rule="evenodd" clip-rule="evenodd" d="M115.004,158c-0.032-10,2.229-37.363-15.25-37.363
	c-17.478,0-15.218,27.363-15.25,37.363H115.004z"/>
<polyline opacity="0.5" points="133.754,98 134.702,107 100,110.25 64.807,107.175 65.754,98 "/>
<path fill="#333333" d="M84.504,158h30.5c-0.007-2.26,0.102-5.408,0.074-8.925L90.512,124.51
	C83.212,132.412,84.53,150.32,84.504,158z"/>
<g>
	<defs>
		<path id="SVGID_5_" d="M115.004,158c-0.032-10,2.229-37.363-15.25-37.363c-17.478,0-15.218,27.363-15.25,37.363H115.004z"/>
	</defs>
	<clipPath id="SVGID_6_">
		<use xlink:href="#SVGID_5_"  overflow="visible"/>
	</clipPath>
	<g clip-path="url(#SVGID_6_)">
		<rect x="90.754" y="110" fill="#726C6C" width="2" height="56"/>
		<rect x="106.754" y="110" fill="#726C6C" width="2" height="56"/>
		<rect x="98.754" y="110" fill="#726C6C" width="2" height="56"/>
	</g>
</g>
<g>
</g>
<g>
</g>
<g>
</g>
<g>
</g>
<g>
</g>
<g>
</g>
<g>
</g>
<g>
</g>
<g>
</g>
<g>
</g>
<g>
</g>
<g>
</g>
<g>
</g>
<g>
</g>
<g>
</g>
</svg>
