<?xml version="1.0" encoding="utf-8"?>
<!-- Generator: Adobe Illustrator 16.0.0, SVG Export Plug-In . SVG Version: 6.00 Build 0)  -->
<!DOCTYPE svg PUBLIC "-//W3C//DTD SVG 1.1//EN" "http://www.w3.org/Graphics/SVG/1.1/DTD/svg11.dtd">
<svg version="1.1" id="Layer_1" xmlns="http://www.w3.org/2000/svg" xmlns:xlink="http://www.w3.org/1999/xlink" x="0px" y="0px"
	 width="200px" height="200px" viewBox="0 0 200 200" enable-background="new 0 0 200 200" xml:space="preserve">
<circle id="circle_2_" fill="#363636" cx="100" cy="100" r="100"/>
<g>
	<g>
		<polyline fill="none" stroke="#FFFFFF" stroke-width="3" stroke-miterlimit="10" points="133.754,53.5 128.07,53.5 
			126.627,63.227 120.492,63.759 		"/>
		<polyline fill="none" stroke="#FFFFFF" stroke-width="3" stroke-miterlimit="10" points="114.98,64.241 109.254,64.772 
			109.254,53.5 102.754,53.5 		"/>
		<polyline fill="none" stroke="#FFFFFF" stroke-width="3" stroke-miterlimit="10" points="94.754,53.5 89.254,53.5 89.254,64.772 
			83.03,64.217 		"/>
		<polyline fill="none" stroke="#FFFFFF" stroke-width="3" stroke-miterlimit="10" points="78.514,63.782 72.583,63.227 
			71.928,53.5 65.754,53.5 		"/>
		<polyline fill="none" stroke="#FFFFFF" stroke-width="3" stroke-miterlimit="10" points="53.754,53.5 48,53.5 49.542,59.264 		"/>
		
			<line fill="none" stroke="#FFFFFF" stroke-width="3" stroke-miterlimit="10" stroke-dasharray="11.6134,11.6134" x1="52.889" y1="70.421" x2="57.723" y2="87.157"/>
		<polyline fill="none" stroke="#FFFFFF" stroke-width="3" stroke-miterlimit="10" points="59.212,92.736 61,98.5 66.754,98.5 		"/>
		
			<line fill="none" stroke="#FFFFFF" stroke-width="3" stroke-miterlimit="10" stroke-dasharray="13,13" x1="79.754" y1="98.5" x2="126.754" y2="98.5"/>
		<polyline fill="none" stroke="#FFFFFF" stroke-width="3" stroke-miterlimit="10" points="132.754,98.5 139,98.5 140.542,92.736 		
			"/>
		
			<line fill="none" stroke="#FFFFFF" stroke-width="3" stroke-miterlimit="10" stroke-dasharray="11.6134,11.6134" x1="143.889" y1="81.579" x2="148.723" y2="64.843"/>
		<polyline fill="none" stroke="#FFFFFF" stroke-width="3" stroke-miterlimit="10" points="150.212,59.264 152,53.5 145.754,53.5 		
			"/>
	</g>
</g>
<g>
	<defs>
		<path id="SVGID_1_" d="M55.92,187.439c13.299,6.356,28.258,9.811,44.08,9.811c15.635,0,30.432-3.307,43.612-9.525L133.754,98.5
			h-68L55.92,187.439z"/>
	</defs>
	<clipPath id="SVGID_2_">
		<use xlink:href="#SVGID_1_"  overflow="visible"/>
	</clipPath>
	
		<use xlink:href="#SVGID_1_"  overflow="visible" fill="none" stroke="#FFFFFF" stroke-width="3" stroke-miterlimit="10" stroke-dasharray="11.829"/>
</g>
<g id="flag_2_">
	<polygon id="pole_2_" fill="#FFFFFF" stroke="#FFFFFF" stroke-miterlimit="10" points="98.254,36.5 100.254,36.5 100.254,49.5 
		98.254,49.5 98.254,36.5 	"/>
	<g id="flag_green_2_">
		<g>
			<polyline fill="none" stroke="#FFFFFF" stroke-width="2" stroke-miterlimit="10" points="113.754,32 120.174,32 116.093,27.898 
				120.258,24 114.754,24 			"/>
			<polyline fill="none" stroke="#FFFFFF" stroke-width="2" stroke-miterlimit="10" points="104.754,24 98.754,24 98.754,32 
				104.754,32 			"/>
		</g>
	</g>
</g>
<g>
	<path fill="#363636" d="M151.046,186l-92.875-5.25l-1.293,9.5c12.713,5.705,27.699,9.75,42.569,9.75
		C118.299,200,135.94,194.889,151.046,186z"/>
</g>
<g>
	<path fill-rule="evenodd" clip-rule="evenodd" fill="#FFFFFF" d="M89.303,127c2.28-3.254,5.604-5.363,10.451-5.363
		s8.171,2.109,10.452,5.363h3.2c-2.656-5.006-6.891-8.429-13.652-8.429S88.758,121.994,86.103,127H89.303z"/>
	<path fill-rule="evenodd" clip-rule="evenodd" fill="#FFFFFF" d="M114.336,139c1.099,7.465,0.653,15.494,0.668,20h-30.5
		c0.015-4.506-0.431-12.535,0.668-20h-2.6c-1.217,8.531-0.708,17.676-0.725,23h35.812c-0.016-5.324,0.492-14.469-0.724-23H114.336z"
		/>
</g>
<polygon fill-rule="evenodd" clip-rule="evenodd" fill="#363636" points="121.754,148 105.754,148 105.754,132 94.754,132 
	94.754,148 78.754,148 78.754,159 94.754,159 94.754,175 105.754,175 105.754,159 121.754,159 "/>
<g>
</g>
<g>
</g>
<g>
</g>
<g>
</g>
<g>
</g>
<g>
</g>
<g>
</g>
<g>
</g>
<g>
</g>
<g>
</g>
<g>
</g>
<g>
</g>
<g>
</g>
<g>
</g>
<g>
</g>
</svg>
