<?xml version="1.0" encoding="utf-8"?>
<!-- Generator: Adobe Illustrator 16.0.0, SVG Export Plug-In . SVG Version: 6.00 Build 0)  -->
<!DOCTYPE svg PUBLIC "-//W3C//DTD SVG 1.1//EN" "http://www.w3.org/Graphics/SVG/1.1/DTD/svg11.dtd">
<svg version="1.1" id="Layer_1" xmlns="http://www.w3.org/2000/svg" xmlns:xlink="http://www.w3.org/1999/xlink" x="0px" y="0px"
	 width="200px" height="200px" viewBox="0 0 200 200" enable-background="new 0 0 200 200" xml:space="preserve">
<circle id="circle_2_" fill="#363636" cx="100" cy="100" r="100"/>
<ellipse fill-rule="evenodd" clip-rule="evenodd" fill="#545454" cx="122.543" cy="54.829" rx="4.457" ry="4.29"/>
<ellipse fill-rule="evenodd" clip-rule="evenodd" fill="#545454" cx="126.543" cy="48.829" rx="4.457" ry="4.29"/>
<ellipse fill-rule="evenodd" clip-rule="evenodd" fill="#545454" cx="116.838" cy="36.208" rx="1.752" ry="1.686"/>
<ellipse fill-rule="evenodd" clip-rule="evenodd" fill="#545454" cx="89.838" cy="26.208" rx="1.751" ry="1.686"/>
<g>
	<circle opacity="0.9" fill-rule="evenodd" clip-rule="evenodd" fill="#545454" cx="85.388" cy="56.026" r="6.956"/>
	<circle fill-rule="evenodd" clip-rule="evenodd" fill="#545454" cx="81.172" cy="45.433" r="6.957"/>
	<circle fill-rule="evenodd" clip-rule="evenodd" fill="#545454" cx="72.549" cy="40.369" r="6.956"/>
	<circle opacity="0.7" fill-rule="evenodd" clip-rule="evenodd" fill="#545454" cx="68.808" cy="55.955" r="14.29"/>
	<circle opacity="0.7" fill-rule="evenodd" clip-rule="evenodd" fill="#545454" cx="78.324" cy="34.483" r="6.957"/>
</g>
<g id="fire_2_">
	<g>
		<path fill="#FFB715" d="M141.793,67.221c-1.537,5.406-5.289,9.078-8.376,8.199c-3.09-0.878-7.182-7.85-2.809-11.379
			c4.147-3.347,8.376-8.202,8.376-8.202S143.331,61.813,141.793,67.221z"/>
		<path fill="#FFB715" d="M135.436,61.997c1.638,6.635-0.233,12.806-4.178,13.778c-3.945,0.975-12.751-3.849-10.107-10.251
			c2.507-6.072,4.176-13.781,4.176-13.781S133.796,55.361,135.436,61.997z"/>
		<path fill="#F76B0B" d="M139.904,68.909c-1.232,4.336-4.241,7.281-6.718,6.576c-2.479-0.704-5.76-6.296-2.253-9.127
			c3.326-2.684,6.718-6.578,6.718-6.578S141.137,64.571,139.904,68.909z"/>
		<path fill="#FFB715" d="M111.844,67.959c1.436,6.681,5.822,11.407,9.794,10.553c3.974-0.854,9.774-9.049,4.591-13.645
			c-4.914-4.358-9.793-10.556-9.793-10.556S110.409,61.276,111.844,67.959z"/>
		<path fill="#F76B0B" d="M134.393,64.935c1.314,5.322-0.186,10.271-3.35,11.051c-3.165,0.782-10.229-3.087-8.107-8.223
			c2.012-4.87,4.318-9.138,4.318-9.138S133.079,59.612,134.393,64.935z"/>
		<path fill="#F76B0B" d="M114.005,70.195c1.244,5.282,4.753,9.081,7.834,8.482c3.083-0.597,7.454-6.937,3.327-10.647
			c-3.914-3.519-7.834-8.484-7.834-8.484S112.762,64.912,114.005,70.195z"/>
	</g>
	<g>
		<path fill="#FFB715" d="M91.793,66.221c-1.537,5.406-5.289,9.078-8.376,8.199c-3.09-0.878-7.182-7.85-2.809-11.379
			c4.147-3.347,8.376-8.202,8.376-8.202S93.331,60.813,91.793,66.221z"/>
		<path fill="#FFB715" d="M85.436,60.997c1.638,6.635-0.233,12.806-4.177,13.778c-3.946,0.975-12.751-3.849-10.108-10.251
			c2.507-6.072,4.175-13.781,4.175-13.781S83.796,54.361,85.436,60.997z"/>
		<path fill="#F76B0B" d="M89.904,67.909c-1.232,4.336-4.242,7.281-6.718,6.576c-2.479-0.704-5.76-6.296-2.252-9.127
			c3.326-2.684,6.718-6.578,6.718-6.578S91.137,63.571,89.904,67.909z"/>
		<path fill="#FFB715" d="M59.844,59.959c1.436,6.681,5.823,11.407,9.794,10.553c3.974-0.854,9.774-9.049,4.591-13.645
			c-4.915-4.358-9.793-10.556-9.793-10.556S58.409,53.276,59.844,59.959z"/>
		<path fill="#F76B0B" d="M84.394,63.935c1.314,5.322-0.187,10.271-3.35,11.051c-3.165,0.782-10.228-3.087-8.107-8.223
			c2.011-4.87,4.318-9.138,4.318-9.138S83.079,58.612,84.394,63.935z"/>
		<path fill="#F76B0B" d="M62.005,62.195c1.244,5.282,4.752,9.081,7.834,8.482c3.083-0.597,7.454-6.937,3.327-10.647
			c-3.914-3.519-7.834-8.484-7.834-8.484S60.762,56.912,62.005,62.195z"/>
	</g>
	<g>
		<path fill="#FFB715" d="M114.793,58.221c-1.537,5.406-5.289,9.078-8.376,8.199c-3.09-0.878-7.182-7.85-2.809-11.379
			c4.147-3.347,8.376-8.202,8.376-8.202S116.331,52.813,114.793,58.221z"/>
		<path fill="#FFB715" d="M108.436,52.997c1.638,6.635-0.233,12.806-4.178,13.778c-3.946,0.975-12.751-3.849-10.107-10.251
			c2.507-6.072,4.175-13.781,4.175-13.781S106.796,46.361,108.436,52.997z"/>
		<path fill="#F76B0B" d="M112.904,59.909c-1.232,4.336-4.241,7.281-6.718,6.576c-2.479-0.704-5.76-6.296-2.253-9.127
			c3.326-2.684,6.718-6.578,6.718-6.578S114.137,55.571,112.904,59.909z"/>
		<path fill="#FFB715" d="M84.844,58.959c1.436,6.681,5.823,11.407,9.794,10.553c3.974-0.854,9.774-9.049,4.591-13.645
			c-4.915-4.358-9.793-10.556-9.793-10.556S83.409,52.276,84.844,58.959z"/>
		<path fill="#F76B0B" d="M107.393,55.935c1.314,5.322-0.186,10.271-3.35,11.051c-3.165,0.782-10.228-3.087-8.107-8.223
			c2.011-4.87,4.318-9.138,4.318-9.138S106.079,50.612,107.393,55.935z"/>
		<path fill="#F76B0B" d="M87.005,61.195c1.244,5.282,4.752,9.081,7.834,8.482c3.083-0.597,7.454-6.937,3.327-10.647
			c-3.914-3.519-7.834-8.484-7.834-8.484S85.762,55.912,87.005,61.195z"/>
	</g>
</g>
<g id="tower">
	<polygon fill="#DEDEDE" points="128.071,53 126.877,62.977 109.754,64.772 109.754,53 89.754,53 89.754,64.772 72.877,62.977 
		71.929,53 48,53 61,98 139,98 152,53 	"/>
	<g>
		<defs>
			<polygon id="SVGID_1_" points="128.071,53 126.877,62.977 109.754,64.772 109.754,53 89.754,53 89.754,64.772 72.877,62.977 
				71.929,53 48,53 61,98 139,98 152,53 			"/>
		</defs>
		<clipPath id="SVGID_2_">
			<use xlink:href="#SVGID_1_"  overflow="visible"/>
		</clipPath>
		<g clip-path="url(#SVGID_2_)">
			<path fill="#B5B5B5" d="M66.754,63c0,0.552-0.448,1-1,1h-20c-0.552,0-1-0.448-1-1v-8c0-0.552,0.448-1,1-1h20c0.552,0,1,0.448,1,1
				V63z"/>
			<path fill="#CBCBCB" d="M89.754,63c0,0.552-0.448,1-1,1h-20c-0.552,0-1-0.448-1-1v-8c0-0.552,0.448-1,1-1h20c0.552,0,1,0.448,1,1
				V63z"/>
			<path fill="#B5B5B5" d="M112.754,63c0,0.552-0.447,1-1,1h-20c-0.552,0-1-0.448-1-1v-8c0-0.552,0.448-1,1-1h20
				c0.553,0,1,0.448,1,1V63z"/>
			<path fill="#CBCBCB" d="M135.754,63c0,0.552-0.447,1-1,1h-20c-0.553,0-1-0.448-1-1v-8c0-0.552,0.447-1,1-1h20
				c0.553,0,1,0.448,1,1V63z"/>
			<path fill="#B5B5B5" d="M158.754,63c0,0.552-0.447,1-1,1h-20c-0.553,0-1-0.448-1-1v-8c0-0.552,0.447-1,1-1h20
				c0.553,0,1,0.448,1,1V63z"/>
			<path fill="#CBCBCB" d="M70.754,74c0,0.552-0.448,1-1,1h-20c-0.552,0-1-0.448-1-1v-8c0-0.552,0.448-1,1-1h20c0.552,0,1,0.448,1,1
				V74z"/>
			<path fill="#B5B5B5" d="M93.754,74c0,0.552-0.448,1-1,1h-20c-0.552,0-1-0.448-1-1v-8c0-0.552,0.448-1,1-1h20c0.552,0,1,0.448,1,1
				V74z"/>
			<path fill="#CBCBCB" d="M116.754,74c0,0.552-0.447,1-1,1h-20c-0.552,0-1-0.448-1-1v-8c0-0.552,0.448-1,1-1h20
				c0.553,0,1,0.448,1,1V74z"/>
			<path fill="#B5B5B5" d="M139.754,74c0,0.552-0.447,1-1,1h-20c-0.553,0-1-0.448-1-1v-8c0-0.552,0.447-1,1-1h20
				c0.553,0,1,0.448,1,1V74z"/>
			<path fill="#CBCBCB" d="M162.754,74c0,0.552-0.447,1-1,1h-20c-0.553,0-1-0.448-1-1v-8c0-0.552,0.447-1,1-1h20
				c0.553,0,1,0.448,1,1V74z"/>
			<path fill="#B5B5B5" d="M64.754,85c0,0.552-0.448,1-1,1h-20c-0.552,0-1-0.448-1-1v-8c0-0.552,0.448-1,1-1h20c0.552,0,1,0.448,1,1
				V85z"/>
			<path fill="#CBCBCB" d="M87.754,85c0,0.552-0.448,1-1,1h-20c-0.552,0-1-0.448-1-1v-8c0-0.552,0.448-1,1-1h20c0.552,0,1,0.448,1,1
				V85z"/>
			<path fill="#B5B5B5" d="M110.754,85c0,0.552-0.447,1-1,1h-20c-0.552,0-1-0.448-1-1v-8c0-0.552,0.448-1,1-1h20
				c0.553,0,1,0.448,1,1V85z"/>
			<path fill="#CBCBCB" d="M133.754,85c0,0.552-0.447,1-1,1h-20c-0.553,0-1-0.448-1-1v-8c0-0.552,0.447-1,1-1h20
				c0.553,0,1,0.448,1,1V85z"/>
			<path fill="#B5B5B5" d="M156.754,85c0,0.552-0.447,1-1,1h-20c-0.553,0-1-0.448-1-1v-8c0-0.552,0.447-1,1-1h20
				c0.553,0,1,0.448,1,1V85z"/>
			<path fill="#CBCBCB" d="M68.754,96c0,0.552-0.448,1-1,1h-20c-0.552,0-1-0.448-1-1v-8c0-0.552,0.448-1,1-1h20c0.552,0,1,0.448,1,1
				V96z"/>
			<path fill="#B5B5B5" d="M91.754,96c0,0.552-0.448,1-1,1h-20c-0.552,0-1-0.448-1-1v-8c0-0.552,0.448-1,1-1h20c0.552,0,1,0.448,1,1
				V96z"/>
			<path fill="#CBCBCB" d="M114.754,96c0,0.552-0.447,1-1,1h-20c-0.552,0-1-0.448-1-1v-8c0-0.552,0.448-1,1-1h20
				c0.553,0,1,0.448,1,1V96z"/>
			<path fill="#B5B5B5" d="M137.754,96c0,0.552-0.447,1-1,1h-20c-0.553,0-1-0.448-1-1v-8c0-0.552,0.447-1,1-1h20
				c0.553,0,1,0.448,1,1V96z"/>
			<path fill="#CBCBCB" d="M160.754,96c0,0.552-0.447,1-1,1h-20c-0.553,0-1-0.448-1-1v-8c0-0.552,0.447-1,1-1h20
				c0.553,0,1,0.448,1,1V96z"/>
		</g>
	</g>
	<path fill="#DEDEDE" d="M55.921,189.779C69.219,196.32,84.179,200,100,200c15.635,0,30.432-3.592,43.613-9.99L133.754,98h-68
		L55.921,189.779z"/>
	<g>
		<defs>
			<path id="SVGID_3_" d="M55.921,189.779C69.219,196.32,84.179,200,100,200c15.635,0,30.432-3.592,43.613-9.99L133.754,98h-68
				L55.921,189.779z"/>
		</defs>
		<clipPath id="SVGID_4_">
			<use xlink:href="#SVGID_3_"  overflow="visible"/>
		</clipPath>
		<g clip-path="url(#SVGID_4_)">
			<g>
				<path fill="#B5B5B5" d="M71.754,108c0,0.552-0.448,1-1,1h-20c-0.552,0-1-0.448-1-1v-8c0-0.552,0.448-1,1-1h20
					c0.552,0,1,0.448,1,1V108z"/>
				<path fill="#CBCBCB" d="M94.754,108c0,0.552-0.448,1-1,1h-20c-0.552,0-1-0.448-1-1v-8c0-0.552,0.448-1,1-1h20
					c0.552,0,1,0.448,1,1V108z"/>
				<path fill="#B5B5B5" d="M117.754,108c0,0.552-0.447,1-1,1h-20c-0.552,0-1-0.448-1-1v-8c0-0.552,0.448-1,1-1h20
					c0.553,0,1,0.448,1,1V108z"/>
				<path fill="#CBCBCB" d="M140.754,108c0,0.552-0.447,1-1,1h-20c-0.553,0-1-0.448-1-1v-8c0-0.552,0.447-1,1-1h20
					c0.553,0,1,0.448,1,1V108z"/>
				<path fill="#B5B5B5" d="M163.754,108c0,0.552-0.447,1-1,1h-20c-0.553,0-1-0.448-1-1v-8c0-0.552,0.447-1,1-1h20
					c0.553,0,1,0.448,1,1V108z"/>
				<path fill="#CBCBCB" d="M75.754,119c0,0.553-0.448,1-1,1h-20c-0.552,0-1-0.447-1-1v-8c0-0.552,0.448-1,1-1h20
					c0.552,0,1,0.448,1,1V119z"/>
				<path fill="#B5B5B5" d="M98.754,119c0,0.553-0.448,1-1,1h-20c-0.552,0-1-0.447-1-1v-8c0-0.552,0.448-1,1-1h20
					c0.552,0,1,0.448,1,1V119z"/>
				<path fill="#CBCBCB" d="M121.754,119c0,0.553-0.447,1-1,1h-20c-0.552,0-1-0.447-1-1v-8c0-0.552,0.448-1,1-1h20
					c0.553,0,1,0.448,1,1V119z"/>
				<path fill="#B5B5B5" d="M144.754,119c0,0.553-0.447,1-1,1h-20c-0.553,0-1-0.447-1-1v-8c0-0.552,0.447-1,1-1h20
					c0.553,0,1,0.448,1,1V119z"/>
				<path fill="#CBCBCB" d="M167.754,119c0,0.553-0.447,1-1,1h-20c-0.553,0-1-0.447-1-1v-8c0-0.552,0.447-1,1-1h20
					c0.553,0,1,0.448,1,1V119z"/>
				<path fill="#B5B5B5" d="M69.754,130c0,0.553-0.448,1-1,1h-20c-0.552,0-1-0.447-1-1v-8c0-0.553,0.448-1,1-1h20
					c0.552,0,1,0.447,1,1V130z"/>
				<path fill="#CBCBCB" d="M92.754,130c0,0.553-0.448,1-1,1h-20c-0.552,0-1-0.447-1-1v-8c0-0.553,0.448-1,1-1h20
					c0.552,0,1,0.447,1,1V130z"/>
				<path fill="#B5B5B5" d="M115.754,130c0,0.553-0.447,1-1,1h-20c-0.552,0-1-0.447-1-1v-8c0-0.553,0.448-1,1-1h20
					c0.553,0,1,0.447,1,1V130z"/>
				<path fill="#CBCBCB" d="M138.754,130c0,0.553-0.447,1-1,1h-20c-0.553,0-1-0.447-1-1v-8c0-0.553,0.447-1,1-1h20
					c0.553,0,1,0.447,1,1V130z"/>
				<path fill="#B5B5B5" d="M161.754,130c0,0.553-0.447,1-1,1h-20c-0.553,0-1-0.447-1-1v-8c0-0.553,0.447-1,1-1h20
					c0.553,0,1,0.447,1,1V130z"/>
				<path fill="#CBCBCB" d="M73.754,141c0,0.553-0.448,1-1,1h-20c-0.552,0-1-0.447-1-1v-8c0-0.553,0.448-1,1-1h20
					c0.552,0,1,0.447,1,1V141z"/>
				<path fill="#B5B5B5" d="M96.754,141c0,0.553-0.448,1-1,1h-20c-0.552,0-1-0.447-1-1v-8c0-0.553,0.448-1,1-1h20
					c0.552,0,1,0.447,1,1V141z"/>
				<path fill="#CBCBCB" d="M119.754,141c0,0.553-0.447,1-1,1h-20c-0.552,0-1-0.447-1-1v-8c0-0.553,0.448-1,1-1h20
					c0.553,0,1,0.447,1,1V141z"/>
				<path fill="#B5B5B5" d="M142.754,141c0,0.553-0.447,1-1,1h-20c-0.553,0-1-0.447-1-1v-8c0-0.553,0.447-1,1-1h20
					c0.553,0,1,0.447,1,1V141z"/>
				<path fill="#CBCBCB" d="M165.754,141c0,0.553-0.447,1-1,1h-20c-0.553,0-1-0.447-1-1v-8c0-0.553,0.447-1,1-1h20
					c0.553,0,1,0.447,1,1V141z"/>
			</g>
			<g>
				<path fill="#B5B5B5" d="M65.754,152c0,0.553-0.448,1-1,1h-20c-0.552,0-1-0.447-1-1v-8c0-0.553,0.448-1,1-1h20
					c0.552,0,1,0.447,1,1V152z"/>
				<path fill="#CBCBCB" d="M88.754,152c0,0.553-0.448,1-1,1h-20c-0.552,0-1-0.447-1-1v-8c0-0.553,0.448-1,1-1h20
					c0.552,0,1,0.447,1,1V152z"/>
				<path fill="#B5B5B5" d="M111.754,152c0,0.553-0.447,1-1,1h-20c-0.552,0-1-0.447-1-1v-8c0-0.553,0.448-1,1-1h20
					c0.553,0,1,0.447,1,1V152z"/>
				<path fill="#CBCBCB" d="M134.754,152c0,0.553-0.447,1-1,1h-20c-0.553,0-1-0.447-1-1v-8c0-0.553,0.447-1,1-1h20
					c0.553,0,1,0.447,1,1V152z"/>
				<path fill="#B5B5B5" d="M157.754,152c0,0.553-0.447,1-1,1h-20c-0.553,0-1-0.447-1-1v-8c0-0.553,0.447-1,1-1h20
					c0.553,0,1,0.447,1,1V152z"/>
				<path fill="#CBCBCB" d="M69.754,163c0,0.553-0.448,1-1,1h-20c-0.552,0-1-0.447-1-1v-8c0-0.553,0.448-1,1-1h20
					c0.552,0,1,0.447,1,1V163z"/>
				<path fill="#B5B5B5" d="M92.754,163c0,0.553-0.448,1-1,1h-20c-0.552,0-1-0.447-1-1v-8c0-0.553,0.448-1,1-1h20
					c0.552,0,1,0.447,1,1V163z"/>
				<path fill="#CBCBCB" d="M115.754,163c0,0.553-0.447,1-1,1h-20c-0.552,0-1-0.447-1-1v-8c0-0.553,0.448-1,1-1h20
					c0.553,0,1,0.447,1,1V163z"/>
				<path fill="#B5B5B5" d="M138.754,163c0,0.553-0.447,1-1,1h-20c-0.553,0-1-0.447-1-1v-8c0-0.553,0.447-1,1-1h20
					c0.553,0,1,0.447,1,1V163z"/>
				<path fill="#CBCBCB" d="M161.754,163c0,0.553-0.447,1-1,1h-20c-0.553,0-1-0.447-1-1v-8c0-0.553,0.447-1,1-1h20
					c0.553,0,1,0.447,1,1V163z"/>
				<path fill="#B5B5B5" d="M63.754,174c0,0.553-0.448,1-1,1h-20c-0.552,0-1-0.447-1-1v-8c0-0.553,0.448-1,1-1h20
					c0.552,0,1,0.447,1,1V174z"/>
				<path fill="#CBCBCB" d="M86.754,174c0,0.553-0.448,1-1,1h-20c-0.552,0-1-0.447-1-1v-8c0-0.553,0.448-1,1-1h20
					c0.552,0,1,0.447,1,1V174z"/>
				<path fill="#B5B5B5" d="M109.754,174c0,0.553-0.447,1-1,1h-20c-0.552,0-1-0.447-1-1v-8c0-0.553,0.448-1,1-1h20
					c0.553,0,1,0.447,1,1V174z"/>
				<path fill="#CBCBCB" d="M132.754,174c0,0.553-0.447,1-1,1h-20c-0.553,0-1-0.447-1-1v-8c0-0.553,0.447-1,1-1h20
					c0.553,0,1,0.447,1,1V174z"/>
				<path fill="#B5B5B5" d="M155.754,174c0,0.553-0.447,1-1,1h-20c-0.553,0-1-0.447-1-1v-8c0-0.553,0.447-1,1-1h20
					c0.553,0,1,0.447,1,1V174z"/>
				<path fill="#CBCBCB" d="M67.754,185c0,0.553-0.448,1-1,1h-20c-0.552,0-1-0.447-1-1v-8c0-0.553,0.448-1,1-1h20
					c0.552,0,1,0.447,1,1V185z"/>
				<path fill="#B5B5B5" d="M90.754,185c0,0.553-0.448,1-1,1h-20c-0.552,0-1-0.447-1-1v-8c0-0.553,0.448-1,1-1h20
					c0.552,0,1,0.447,1,1V185z"/>
				<path fill="#CBCBCB" d="M113.754,185c0,0.553-0.447,1-1,1h-20c-0.552,0-1-0.447-1-1v-8c0-0.553,0.448-1,1-1h20
					c0.553,0,1,0.447,1,1V185z"/>
				<path fill="#B5B5B5" d="M136.754,185c0,0.553-0.447,1-1,1h-20c-0.553,0-1-0.447-1-1v-8c0-0.553,0.447-1,1-1h20
					c0.553,0,1,0.447,1,1V185z"/>
				<path fill="#CBCBCB" d="M159.754,185c0,0.553-0.447,1-1,1h-20c-0.553,0-1-0.447-1-1v-8c0-0.553,0.447-1,1-1h20
					c0.553,0,1,0.447,1,1V185z"/>
			</g>
			<g>
				<path fill="#B5B5B5" d="M55.754,196c0,0.553-0.448,1-1,1h-20c-0.552,0-1-0.447-1-1v-8c0-0.553,0.448-1,1-1h20
					c0.552,0,1,0.447,1,1V196z"/>
				<path fill="#CBCBCB" d="M78.754,196c0,0.553-0.448,1-1,1h-20c-0.552,0-1-0.447-1-1v-8c0-0.553,0.448-1,1-1h20
					c0.552,0,1,0.447,1,1V196z"/>
				<path fill="#B5B5B5" d="M101.754,196c0,0.553-0.448,1-1,1h-20c-0.552,0-1-0.447-1-1v-8c0-0.553,0.448-1,1-1h20
					c0.552,0,1,0.447,1,1V196z"/>
				<path fill="#CBCBCB" d="M124.754,196c0,0.553-0.447,1-1,1h-20c-0.553,0-1-0.447-1-1v-8c0-0.553,0.447-1,1-1h20
					c0.553,0,1,0.447,1,1V196z"/>
				<path fill="#B5B5B5" d="M147.754,196c0,0.553-0.447,1-1,1h-20c-0.553,0-1-0.447-1-1v-8c0-0.553,0.447-1,1-1h20
					c0.553,0,1,0.447,1,1V196z"/>
				<path fill="#CBCBCB" d="M59.754,207c0,0.553-0.448,1-1,1h-20c-0.552,0-1-0.447-1-1v-8c0-0.553,0.448-1,1-1h20
					c0.552,0,1,0.447,1,1V207z"/>
				<path fill="#B5B5B5" d="M82.754,207c0,0.553-0.448,1-1,1h-20c-0.552,0-1-0.447-1-1v-8c0-0.553,0.448-1,1-1h20
					c0.552,0,1,0.447,1,1V207z"/>
				<path fill="#CBCBCB" d="M105.754,207c0,0.553-0.447,1-1,1h-20c-0.552,0-1-0.447-1-1v-8c0-0.553,0.448-1,1-1h20
					c0.553,0,1,0.447,1,1V207z"/>
				<path fill="#B5B5B5" d="M128.754,207c0,0.553-0.447,1-1,1h-20c-0.553,0-1-0.447-1-1v-8c0-0.553,0.447-1,1-1h20
					c0.553,0,1,0.447,1,1V207z"/>
				<path fill="#CBCBCB" d="M151.754,207c0,0.553-0.447,1-1,1h-20c-0.553,0-1-0.447-1-1v-8c0-0.553,0.447-1,1-1h20
					c0.553,0,1,0.447,1,1V207z"/>
				<path fill="#B5B5B5" d="M53.754,218c0,0.553-0.448,1-1,1h-20c-0.552,0-1-0.447-1-1v-8c0-0.553,0.448-1,1-1h20
					c0.552,0,1,0.447,1,1V218z"/>
				<path fill="#CBCBCB" d="M76.754,218c0,0.553-0.448,1-1,1h-20c-0.552,0-1-0.447-1-1v-8c0-0.553,0.448-1,1-1h20
					c0.552,0,1,0.447,1,1V218z"/>
				<path fill="#B5B5B5" d="M99.754,218c0,0.553-0.448,1-1,1h-20c-0.552,0-1-0.447-1-1v-8c0-0.553,0.448-1,1-1h20
					c0.552,0,1,0.447,1,1V218z"/>
				<path fill="#CBCBCB" d="M122.754,218c0,0.553-0.447,1-1,1h-20c-0.552,0-1-0.447-1-1v-8c0-0.553,0.448-1,1-1h20
					c0.553,0,1,0.447,1,1V218z"/>
				<path fill="#B5B5B5" d="M145.754,218c0,0.553-0.447,1-1,1h-20c-0.553,0-1-0.447-1-1v-8c0-0.553,0.447-1,1-1h20
					c0.553,0,1,0.447,1,1V218z"/>
				<path fill="#CBCBCB" d="M57.754,229c0,0.553-0.448,1-1,1h-20c-0.552,0-1-0.447-1-1v-8c0-0.553,0.448-1,1-1h20
					c0.552,0,1,0.447,1,1V229z"/>
				<path fill="#B5B5B5" d="M80.754,229c0,0.553-0.448,1-1,1h-20c-0.552,0-1-0.447-1-1v-8c0-0.553,0.448-1,1-1h20
					c0.552,0,1,0.447,1,1V229z"/>
				<path fill="#CBCBCB" d="M103.754,229c0,0.553-0.447,1-1,1h-20c-0.552,0-1-0.447-1-1v-8c0-0.553,0.448-1,1-1h20
					c0.553,0,1,0.447,1,1V229z"/>
				<path fill="#B5B5B5" d="M126.754,229c0,0.553-0.447,1-1,1h-20c-0.553,0-1-0.447-1-1v-8c0-0.553,0.447-1,1-1h20
					c0.553,0,1,0.447,1,1V229z"/>
				<path fill="#CBCBCB" d="M149.754,229c0,0.553-0.447,1-1,1h-20c-0.553,0-1-0.447-1-1v-8c0-0.553,0.447-1,1-1h20
					c0.553,0,1,0.447,1,1V229z"/>
			</g>
		</g>
	</g>
	<rect x="81.754" y="161" opacity="0.3" width="36" height="4"/>
	<rect x="79.754" y="157" fill="#D9D9D9" width="40" height="4"/>
	<g id="flag_2_">
		<polygon id="pole_2_" fill="#9B9B9B" points="98.754,24 100.754,24 100.754,53 98.754,53 98.754,24 		"/>
		<polygon id="flag_green_2_" fill="#FF1D25" points="116.093,27.898 120.258,24 98.754,24 98.754,32 120.174,32 116.093,27.898 		
			"/>
	</g>
	<path fill-rule="evenodd" clip-rule="evenodd" fill="#EFEFEF" d="M117.661,161c-0.036-12,2.613-43.429-17.906-43.429
		C79.235,117.571,81.885,149,81.848,161H117.661z"/>
	<path fill-rule="evenodd" clip-rule="evenodd" fill="#333333" d="M115.004,158c-0.032-10,2.229-37.363-15.25-37.363
		c-17.478,0-15.218,27.363-15.25,37.363H115.004z"/>
	<g>
		<defs>
			<path id="SVGID_5_" d="M115.004,158c-0.032-10,2.229-37.363-15.25-37.363c-17.478,0-15.218,27.363-15.25,37.363H115.004z"/>
		</defs>
		<clipPath id="SVGID_6_">
			<use xlink:href="#SVGID_5_"  overflow="visible"/>
		</clipPath>
		<g clip-path="url(#SVGID_6_)">
			<circle opacity="0.6" fill-rule="evenodd" clip-rule="evenodd" fill="#545454" cx="109.986" cy="153.629" r="5.834"/>
			<circle fill-rule="evenodd" clip-rule="evenodd" fill="#545454" cx="108.799" cy="144.142" r="5.834"/>
			<circle fill-rule="evenodd" clip-rule="evenodd" fill="#545454" cx="102.87" cy="138.211" r="5.833"/>
			<circle opacity="0.6" fill-rule="evenodd" clip-rule="evenodd" fill="#545454" cx="96.544" cy="150.071" r="11.984"/>
			<circle opacity="0.6" fill-rule="evenodd" clip-rule="evenodd" fill="#545454" cx="108.799" cy="134.654" r="5.834"/>
		</g>
		<g clip-path="url(#SVGID_6_)">
			<path fill="#FFB715" d="M114.515,157.128c-2.224,5.161-6.42,8.316-9.367,7.045c-2.95-1.271-6.104-8.714-1.312-11.647
				c4.547-2.781,9.368-7.047,9.368-7.047S116.74,151.965,114.515,157.128z"/>
			<path fill="#FFB715" d="M108.888,151.124c0.765,6.791-1.891,12.668-5.927,13.121c-4.04,0.455-12.146-5.468-8.695-11.474
				c3.272-5.696,5.925-13.124,5.925-13.124S108.122,144.332,108.888,151.124z"/>
			<path fill="#F76B0B" d="M112.423,158.557c-1.784,4.14-5.149,6.67-7.514,5.65c-2.367-1.019-4.896-6.989-1.052-9.342
				c3.646-2.23,7.514-5.652,7.514-5.652S114.208,154.416,112.423,158.557z"/>
			<path fill="#FFB715" d="M84.723,153.98c0.559,6.811,4.296,12.064,8.345,11.732c4.051-0.332,10.864-7.707,6.32-12.936
				c-4.308-4.957-8.344-11.734-8.344-11.734S84.166,147.168,84.723,153.98z"/>
			<path fill="#F76B0B" d="M107.473,153.902c0.614,5.447-1.515,10.16-4.753,10.524c-3.24,0.365-9.742-4.387-6.974-9.204
				c2.625-4.568,5.466-8.502,5.466-8.502S106.86,148.454,107.473,153.902z"/>
			<path fill="#F76B0B" d="M86.576,156.478c0.549,5.399,3.537,9.62,6.669,9.426c3.134-0.192,8.29-5.913,4.678-10.126
				c-3.425-3.996-6.668-9.429-6.668-9.429S86.028,151.078,86.576,156.478z"/>
		</g>
		<g clip-path="url(#SVGID_6_)">
			<path fill="#FFB715" d="M138.515,163.128c-2.224,5.161-6.42,8.316-9.367,7.045c-2.95-1.271-6.104-8.714-1.312-11.647
				c4.547-2.781,9.368-7.047,9.368-7.047S140.74,157.965,138.515,163.128z"/>
			<path fill="#FFB715" d="M132.888,157.124c0.765,6.791-1.891,12.668-5.927,13.121c-4.039,0.455-12.146-5.468-8.695-11.474
				c3.272-5.696,5.926-13.124,5.926-13.124S132.122,150.332,132.888,157.124z"/>
			<path fill="#F76B0B" d="M136.423,164.557c-1.784,4.14-5.149,6.67-7.514,5.65c-2.367-1.019-4.896-6.989-1.052-9.342
				c3.646-2.23,7.514-5.652,7.514-5.652S138.208,160.416,136.423,164.557z"/>
			<path fill="#FFB715" d="M108.723,159.98c0.559,6.811,4.296,12.064,8.344,11.732c4.051-0.332,10.864-7.707,6.32-12.936
				c-4.309-4.957-8.344-11.734-8.344-11.734S108.166,153.168,108.723,159.98z"/>
			<path fill="#F76B0B" d="M131.473,159.902c0.614,5.447-1.515,10.16-4.753,10.524c-3.239,0.365-9.741-4.387-6.974-9.204
				c2.625-4.568,5.466-8.502,5.466-8.502S130.86,154.454,131.473,159.902z"/>
			<path fill="#F76B0B" d="M110.576,162.478c0.55,5.399,3.536,9.62,6.669,9.426c3.135-0.192,8.291-5.913,4.679-10.126
				c-3.425-3.996-6.669-9.429-6.669-9.429S110.028,157.078,110.576,162.478z"/>
		</g>
		<g clip-path="url(#SVGID_6_)">
			<path fill="#FFB715" d="M96.515,161.128c-2.224,5.161-6.42,8.316-9.367,7.045c-2.95-1.271-6.104-8.714-1.311-11.647
				c4.546-2.781,9.368-7.047,9.368-7.047S98.74,155.965,96.515,161.128z"/>
			<path fill="#FFB715" d="M90.888,155.124c0.765,6.791-1.891,12.668-5.927,13.121c-4.04,0.455-12.146-5.468-8.695-11.474
				c3.272-5.696,5.925-13.124,5.925-13.124S90.122,148.332,90.888,155.124z"/>
			<path fill="#F76B0B" d="M94.423,162.557c-1.785,4.14-5.15,6.67-7.514,5.65c-2.367-1.019-4.896-6.989-1.052-9.342
				c3.646-2.23,7.514-5.652,7.514-5.652S96.207,158.416,94.423,162.557z"/>
			<path fill="#FFB715" d="M66.723,157.98c0.559,6.811,4.296,12.064,8.345,11.732c4.051-0.332,10.864-7.707,6.32-12.936
				c-4.308-4.957-8.344-11.734-8.344-11.734S66.166,151.168,66.723,157.98z"/>
			<path fill="#F76B0B" d="M89.474,157.902c0.614,5.447-1.515,10.16-4.753,10.524c-3.24,0.365-9.742-4.387-6.974-9.204
				c2.625-4.568,5.466-8.502,5.466-8.502S88.859,152.454,89.474,157.902z"/>
			<path fill="#F76B0B" d="M68.576,160.478c0.549,5.399,3.537,9.62,6.669,9.426c3.134-0.192,8.29-5.913,4.678-10.126
				c-3.425-3.996-6.668-9.429-6.668-9.429S68.028,155.078,68.576,160.478z"/>
		</g>
	</g>
	<polyline opacity="0.5" points="133.754,98 134.702,107 100,110.25 64.807,107.175 65.754,98 	"/>
	<path display="none" fill="#333333" d="M84.505,158h30.5c-0.007-2.26,0.102-5.408,0.074-8.925L90.512,124.51
		C83.212,132.412,84.529,150.32,84.505,158z"/>
</g>
<g id="fire_1_">
	<path fill="#FFB715" d="M99.273,126.237c-0.622,0.642-0.816,1.462-0.435,1.831c0.381,0.369,1.693,0.404,1.816-0.492
		c0.117-0.852,0.436-1.831,0.436-1.831S99.896,125.596,99.273,126.237z"/>
	<path fill="#FFB715" d="M105.274,119.237c-0.622,0.642-0.816,1.462-0.436,1.831s1.693,0.404,1.816-0.492
		c0.116-0.852,0.436-1.831,0.436-1.831S105.895,118.596,105.274,119.237z"/>
	<path fill="#FFB715" d="M89.961,132.824c0.018,0.894,0.463,1.609,0.994,1.598c0.531-0.01,1.479-0.918,0.929-1.637
		c-0.522-0.682-0.995-1.598-0.995-1.598S89.943,131.932,89.961,132.824z"/>
	<path fill="#FFB715" d="M102.274,151.237c-0.622,0.642-0.817,1.462-0.436,1.831c0.381,0.369,1.693,0.404,1.816-0.492
		c0.116-0.852,0.436-1.831,0.436-1.831S102.895,150.596,102.274,151.237z"/>
	<path fill="#FFB715" d="M80.102,149.385c0.577,0.683,1.374,0.957,1.779,0.615c0.406-0.343,0.57-1.645-0.31-1.855
		c-0.835-0.201-1.779-0.615-1.779-0.615S79.525,148.703,80.102,149.385z"/>
	<path fill="#FFB715" d="M136.274,42.237c-0.622,0.642-0.816,1.461-0.436,1.831c0.381,0.37,1.693,0.405,1.816-0.492
		c0.116-0.851,0.436-1.831,0.436-1.831S136.895,41.596,136.274,42.237z"/>
	<path fill="#FFB715" d="M136.274,22.237c-0.622,0.642-0.816,1.461-0.436,1.831c0.381,0.37,1.693,0.405,1.816-0.492
		c0.116-0.851,0.436-1.831,0.436-1.831S136.895,21.596,136.274,22.237z"/>
</g>
<g id="smoke" opacity="0.6">
	<ellipse fill-rule="evenodd" clip-rule="evenodd" fill="#545454" cx="112.543" cy="128.829" rx="4.457" ry="4.29"/>
	<ellipse fill-rule="evenodd" clip-rule="evenodd" fill="#545454" cx="85.15" cy="31.868" rx="4.498" ry="4.329"/>
	<ellipse fill-rule="evenodd" clip-rule="evenodd" fill="#545454" cx="119.838" cy="121.203" rx="1.751" ry="1.686"/>
</g>
<g>
	<path fill="#FFB715" d="M54.961,35.989c0.188,0.873,0.761,1.491,1.28,1.379c0.52-0.111,1.277-1.183,0.6-1.783
		c-0.643-0.57-1.28-1.379-1.28-1.379S54.774,35.116,54.961,35.989z"/>
	<path fill="#FFB715" d="M109.019,38.584c-0.235,0.861-0.011,1.674,0.501,1.813c0.514,0.141,1.68-0.461,1.354-1.307
		c-0.308-0.802-0.501-1.814-0.501-1.814S109.254,37.722,109.019,38.584z"/>
	<path fill="#FFB715" d="M119.2,68.305c-0.543,0.709-0.642,1.546-0.22,1.869c0.421,0.323,1.729,0.206,1.747-0.7
		c0.017-0.858,0.219-1.869,0.219-1.869S119.743,67.596,119.2,68.305z"/>
	<path fill="#FFB715" d="M95.961,63.989c0.188,0.873,0.761,1.491,1.28,1.379c0.52-0.111,1.277-1.183,0.6-1.783
		c-0.643-0.57-1.28-1.379-1.28-1.379S95.774,63.116,95.961,63.989z"/>
	<path fill="#FFB715" d="M85.961,93.989c0.188,0.873,0.761,1.491,1.28,1.379c0.52-0.111,1.277-1.183,0.6-1.783
		c-0.643-0.57-1.28-1.379-1.28-1.379S85.774,93.116,85.961,93.989z"/>
	<path fill="#FFB715" d="M55.961,113.989c0.188,0.873,0.761,1.491,1.28,1.379c0.52-0.111,1.277-1.183,0.6-1.783
		c-0.643-0.57-1.28-1.379-1.28-1.379S55.774,113.116,55.961,113.989z"/>
	<path fill="#FFB715" d="M144.274,138.237c-0.622,0.642-0.816,1.462-0.436,1.831s1.693,0.404,1.816-0.492
		c0.116-0.852,0.436-1.831,0.436-1.831S144.895,137.596,144.274,138.237z"/>
</g>
<g>
</g>
<g>
</g>
<g>
</g>
<g>
</g>
<g>
</g>
<g>
</g>
<g>
</g>
<g>
</g>
<g>
</g>
<g>
</g>
<g>
</g>
<g>
</g>
<g>
</g>
<g>
</g>
<g>
</g>
</svg>
