<?xml version="1.0" encoding="UTF-8" standalone="no"?>
<svg preserveAspectRatio="none" width="32px" height="357px" viewBox="0 0 32 357" version="1.1" xmlns="http://www.w3.org/2000/svg" xmlns:xlink="http://www.w3.org/1999/xlink" xmlns:sketch="http://www.bohemiancoding.com/sketch/ns">
    <!-- Generator: Sketch 3.3 (11970) - http://www.bohemiancoding.com/sketch -->
    <title>nav</title>
    <desc>Created with Sketch.</desc>
    <defs></defs>
    <g id="Page-1" stroke="none" stroke-width="1" fill="none" fill-rule="evenodd" sketch:type="MSPage">
        <g id="nav" sketch:type="MSLayerGroup" transform="translate(0.000000, -1.000000)" fill="#FFFFFF">
            <path d="M8.86111111,5 L4,10 L8.86111111,15 L10.2368056,13.585 L7.72361111,11 L19.0694444,11 L19.0694444,9 L7.72361111,9 L10.2368056,6.415 L8.86111111,5 Z M14.6944444,1 C13.6201389,1 13.7222222,1.895 13.7222222,3 L13.7222222,7 L15.6666667,7 L15.6666667,3 L25.3888889,3 L25.3888889,17 L19.1961031,17 L15.6666667,17 L15.6666667,13 L13.7222222,13 L13.7222222,17 C13.7222222,18.105 14.5923611,19 15.6666667,19 L22.8862546,19 L25.3888889,19 C26.4631944,19 27.3333333,18.105 27.3333333,17 L27.3333333,3 C27.3333333,1.895 26.4631944,1 25.3888889,1 L14.6944444,1 Z" id="Shape" sketch:type="MSShapeGroup" transform="translate(15.666667, 10.000000) rotate(-180.000000) translate(-15.666667, -10.000000) "></path>
            <path d="M15.6666667,82 C16.4716667,82 17.1590278,82.293 17.72875,82.879 C18.2984722,83.465 18.5833333,84.172 18.5833333,85 L18.5833333,85.516 C18.8212037,85.5993333 19.1073611,85.719 19.4418056,85.875 L19.7908333,85.516 C20.3631481,84.9273333 21.0518056,84.633 21.8568056,84.633 C22.6566204,84.633 23.3426852,84.9273333 23.915,85.516 C24.4873148,86.1046667 24.7734722,86.8103333 24.7734722,87.633 C24.7734722,88.461 24.4873148,89.1693333 23.915,89.758 L23.5659722,90.117 C23.7176389,90.461 23.8339815,90.7553333 23.915,91 L24.4166667,91 C25.2216667,91 25.9090278,91.293 26.47875,91.879 C27.0484722,92.465 27.3333333,93.172 27.3333333,94 C27.3333333,94.828 27.0484722,95.535 26.47875,96.121 C25.9090278,96.707 25.2216667,97 24.4166667,97 L23.915,97 C23.8339815,97.2446667 23.7176389,97.539 23.5659722,97.883 L23.915,98.242 C24.4873148,98.8306667 24.7734722,99.539 24.7734722,100.367 C24.7734722,101.189667 24.4873148,101.895333 23.915,102.484 C23.3426852,103.072667 22.6566204,103.367 21.8568056,103.367 C21.0518056,103.367 20.3631481,103.072667 19.7908333,102.484 L19.4418056,102.125 C19.1073611,102.281 18.8212037,102.400667 18.5833333,102.484 L18.5833333,103 C18.5833333,103.828 18.2984722,104.535 17.72875,105.121 C17.1590278,105.707 16.4716667,106 15.6666667,106 C14.8616667,106 14.1743056,105.707 13.6045833,105.121 C13.0348611,104.535 12.75,103.828 12.75,103 L12.75,102.484 C12.5121296,102.400667 12.2259722,102.281 11.8915278,102.125 L11.5425,102.484 C10.9701852,103.072667 10.2841204,103.367 9.48430556,103.367 C8.67930556,103.367 7.99194444,103.072667 7.42222222,102.484 C6.8525,101.895333 6.56763889,101.189667 6.56763889,100.367 C6.56763889,99.5336667 6.8512037,98.8253333 7.41833333,98.242 L7.76736111,97.883 C7.61569444,97.539 7.49935185,97.2446667 7.41833333,97 L6.91666667,97 C6.11166667,97 5.42430556,96.707 4.85458333,96.121 C4.28486111,95.535 4,94.828 4,94 C4,93.172 4.28486111,92.465 4.85458333,91.879 C5.42430556,91.293 6.11166667,91 6.91666667,91 L7.41833333,91 C7.49935185,90.7553333 7.61569444,90.461 7.76736111,90.117 L7.41833333,89.758 C6.8512037,89.1746667 6.56763889,88.4663333 6.56763889,87.633 C6.56763889,86.8103333 6.8525,86.1046667 7.42222222,85.516 C7.99194444,84.9273333 8.67930556,84.633 9.48430556,84.633 C10.2841204,84.633 10.9701852,84.9273333 11.5425,85.516 L11.8915278,85.875 C12.2259722,85.719 12.5121296,85.5993333 12.75,85.516 L12.75,85 C12.75,84.172 13.0348611,83.465 13.6045833,82.879 C14.1743056,82.293 14.8616667,82 15.6666667,82 L15.6666667,82 Z M15.6666667,84 C15.3983333,84 15.169213,84.0976667 14.9793056,84.293 C14.7893981,84.4883333 14.6944444,84.724 14.6944444,85 L14.6944444,87.07 C13.5601852,87.2366667 12.5247685,87.6766667 11.5881944,88.39 L10.1677778,86.929 C9.97527778,86.731 9.7474537,86.632 9.48430556,86.632 C9.21597222,86.632 8.98685185,86.7296667 8.79694444,86.925 C8.60703704,87.1203333 8.51208333,87.356 8.51208333,87.632 C8.51208333,87.9133333 8.60574074,88.1503333 8.79305556,88.343 L10.2134722,89.804 C9.5199537,90.7673333 9.09217593,91.8323333 8.93013889,92.999 L6.91763889,92.999 C6.64930556,92.999 6.42018519,93.0966667 6.23027778,93.292 C6.04037037,93.4873333 5.94541667,93.723 5.94541667,93.999 C5.94541667,94.275 6.04037037,94.5106667 6.23027778,94.706 C6.42018519,94.9013333 6.64930556,94.999 6.91763889,94.999 L8.93013889,94.999 C9.09217593,96.1656667 9.5199537,97.2306667 10.2134722,98.194 L8.79305556,99.655 C8.60574074,99.8476667 8.51208333,100.084667 8.51208333,100.366 C8.51208333,100.642 8.60703704,100.877667 8.79694444,101.073 C8.98685185,101.268333 9.21597222,101.366 9.48430556,101.366 C9.7474537,101.366 9.97527778,101.267 10.1677778,101.069 L11.5881944,99.608 C12.5247685,100.321333 13.5601852,100.761333 14.6944444,100.928 L14.6944444,102.998 C14.6944444,103.274 14.7893981,103.509667 14.9793056,103.705 C15.169213,103.900333 15.3983333,103.998 15.6666667,103.998 C15.935,103.998 16.1641204,103.900333 16.3540278,103.705 C16.5439352,103.509667 16.6388889,103.274 16.6388889,102.998 L16.6388889,100.928 C17.7731481,100.761333 18.8085648,100.321333 19.7451389,99.608 L21.1655556,101.069 C21.3580556,101.267 21.5884722,101.366 21.8568056,101.366 C22.1251389,101.366 22.3542593,101.268333 22.5441667,101.073 C22.7340741,100.877667 22.8290278,100.642 22.8290278,100.366 C22.8290278,100.09 22.7327778,99.853 22.5402778,99.655 L21.1198611,98.194 C21.8133796,97.2306667 22.2411574,96.1656667 22.4031944,94.999 L24.4156944,94.999 C24.6840278,94.999 24.9131481,94.9013333 25.1030556,94.706 C25.292963,94.5106667 25.3879167,94.275 25.3879167,93.999 C25.3879167,93.723 25.292963,93.4873333 25.1030556,93.292 C24.9131481,93.0966667 24.6840278,92.999 24.4156944,92.999 L22.4031944,92.999 C22.2411574,91.8323333 21.8133796,90.7673333 21.1198611,89.804 L22.5402778,88.343 C22.7327778,88.145 22.8290278,87.908 22.8290278,87.632 C22.8290278,87.356 22.7340741,87.1203333 22.5441667,86.925 C22.3542593,86.7296667 22.1251389,86.632 21.8568056,86.632 C21.5884722,86.632 21.3580556,86.731 21.1655556,86.929 L19.7451389,88.39 C18.8085648,87.6766667 17.7731481,87.2366667 16.6388889,87.07 L16.6388889,85 C16.6388889,84.724 16.5439352,84.4883333 16.3540278,84.293 C16.1641204,84.0976667 15.935,84 15.6666667,84 L15.6666667,84 Z M15.6666667,90 C16.74,90 17.6564815,90.3906667 18.4161111,91.172 C19.1757407,91.9533333 19.5555556,92.896 19.5555556,94 C19.5555556,95.104 19.1757407,96.0466667 18.4161111,96.828 C17.6564815,97.6093333 16.74,98 15.6666667,98 C14.5933333,98 13.6768519,97.6093333 12.9172222,96.828 C12.1575926,96.0466667 11.7777778,95.104 11.7777778,94 C11.7777778,92.896 12.1575926,91.9533333 12.9172222,91.172 C13.6768519,90.3906667 14.5933333,90 15.6666667,90 L15.6666667,90 Z M15.6666667,92 C15.13,92 14.6717593,92.1953333 14.2919444,92.586 C13.9121296,92.9766667 13.7222222,93.448 13.7222222,94 C13.7222222,94.552 13.9121296,95.0233333 14.2919444,95.414 C14.6717593,95.8046667 15.13,96 15.6666667,96 C16.2033333,96 16.6615741,95.8046667 17.0413889,95.414 C17.4212037,95.0233333 17.6111111,94.552 17.6111111,94 C17.6111111,93.448 17.4212037,92.9766667 17.0413889,92.586 C16.6615741,92.1953333 16.2033333,92 15.6666667,92 L15.6666667,92 Z" id="Shape" sketch:type="MSShapeGroup"></path>
            <path d="M15.6656944,166 C16.7241204,166 17.7002315,166.268333 18.5940278,166.805 C19.4878241,167.341667 20.1956019,168.069667 20.7173611,168.989 C21.2391204,169.908333 21.5,170.912333 21.5,172.001 L21.5,175.001 C21.5,175.834333 21.3431481,176.623333 21.0294444,177.368 C20.7157407,178.112667 20.2775926,178.761 19.715,179.313 C21.1934259,179.552333 22.5075463,179.905333 23.6573611,180.372 C24.8071759,180.838667 25.7071296,181.389333 26.3572222,182.024 C27.0073148,182.658667 27.3326852,183.328 27.3333333,184.032 L27.3333333,186.001 C27.3333333,186.829 27.0484722,187.536 26.47875,188.122 C25.9090278,188.708 25.2216667,189.001 24.4166667,189.001 L6.91666667,189.001 C6.11166667,189.001 5.42430556,188.708 4.85458333,188.122 C4.28486111,187.536 4,186.829 4,186.001 L4,184.024 C4,183.320667 4.32537037,182.651333 4.97611111,182.016 C5.62685185,181.380667 6.52550926,180.83 7.67208333,180.364 C8.81865741,179.898 10.1314815,179.547667 11.6105556,179.313 C11.0537963,178.755667 10.6182407,178.106 10.3038889,177.364 C9.98953704,176.622 9.83268519,175.834333 9.83333333,175.001 L9.83333333,172.001 C9.83333333,170.912333 10.094213,169.908333 10.6159722,168.989 C11.1377315,168.069667 11.8455093,167.341667 12.7393056,166.805 C13.6331019,166.268333 14.609213,166 15.6676389,166 L15.6656944,166 Z M15.6656944,181 C14.2579167,181 12.8997222,181.116 11.5911111,181.348 C10.2825,181.58 9.14175926,181.904333 8.16888889,182.321 C7.7787037,182.487667 7.43064815,182.664667 7.12472222,182.852 C6.8187963,183.039333 6.58578704,183.208667 6.42569444,183.36 C6.26560185,183.511333 6.14537037,183.643 6.065,183.755 C5.98462963,183.867 5.94412037,183.957 5.94347222,184.025 L5.94347222,186.002 C5.94347222,186.278 6.03842593,186.513667 6.22833333,186.709 C6.41824074,186.904333 6.64736111,187.002 6.91569444,187.002 L24.4156944,187.002 C24.6840278,187.002 24.9131481,186.904333 25.1030556,186.709 C25.292963,186.513667 25.3879167,186.278 25.3879167,186.002 L25.3879167,184.033 C25.3879167,183.965 25.3474074,183.875 25.2663889,183.763 C25.1853704,183.651 25.0651389,183.519333 24.9056944,183.368 C24.74625,183.216667 24.5132407,183.047333 24.2066667,182.86 C23.9000926,182.672667 23.552037,182.493 23.1625,182.321 C22.1902778,181.904333 21.049537,181.58 19.7402778,181.348 C18.4310185,181.116 17.0728241,181 15.6656944,181 L15.6656944,181 Z M15.6656944,168 C14.5923611,168 13.6758796,168.390667 12.91625,169.172 C12.1566204,169.953333 11.7768056,170.896 11.7768056,172 L11.7768056,175 C11.7768056,176.104 12.1566204,177.046667 12.91625,177.828 C13.6758796,178.609333 14.5923611,179 15.6656944,179 C16.7390278,179 17.6555093,178.609333 18.4151389,177.828 C19.1747685,177.046667 19.5545833,176.104 19.5545833,175 L19.5545833,172 C19.5545833,170.896 19.1747685,169.953333 18.4151389,169.172 C17.6555093,168.390667 16.7390278,168 15.6656944,168 L15.6656944,168 Z" id="Shape" sketch:type="MSShapeGroup"></path>
            <path d="M5,255 L15.6944444,250 L26.3888889,255 L26.3888889,269 L15.6944444,274 L5,269 L5,255 L5,255 Z M14.7222222,260.641 L6.94444444,257.008 L6.94444444,267.711 L14.7222222,271.352 L14.7222222,260.641 L14.7222222,260.641 Z M24.4444444,267.711 L24.4444444,257.008 L16.6666667,260.641 L16.6666667,271.352 L24.4444444,267.711 Z M22.8645833,255.547 L15.6944444,252.195 L8.52430556,255.547 L15.6944444,258.899 L22.8645833,255.547 Z" id="Shape" sketch:type="MSShapeGroup"></path>
            <path d="M10,352.999128 C10,353.551894 9.55664682,354 8.9906311,354 L7.0093689,354 C6.45190985,354 6,353.546964 6,353.00297 L6,346.99703 C6,346.446386 6.44335318,346 7.0093689,346 L8.9906311,346 C9.54809015,346 10,346.445108 10,347.005443 L10,352.999128 Z M16,352.999128 C16,353.551894 15.5566468,354 14.9906311,354 L13.0093689,354 C12.4519098,354 12,353.555369 12,352.999128 L12,339.000872 C12,338.448106 12.4433532,338 13.0093689,338 L14.9906311,338 C15.5480902,338 16,338.444631 16,339.000872 L16,352.999128 Z M32,357 C32,357.552285 31.5476379,358 31.0072136,358 L0.992786407,358 C0.444485615,358 0,357.552531 0,356.999305 L0,335.000695 C0,334.448026 0.443864822,334 1,334 L1,334 C1.55228475,334 2,334.455056 2,334.995819 C2,334.995819 2,334.698063 2,335.047094 L2,354.999626 C2,355.552117 2.44736519,356 2.99815369,356 L31.0018463,356 C31.5531114,356 32,356.443865 32,357 L32,357 Z M22,352.997527 C22,353.551177 21.5566468,354 20.9906311,354 L19.0093689,354 C18.4519098,354 18,353.544239 18,352.997527 L18,343.002473 C18,342.448823 18.4433532,342 19.0093689,342 L20.9906311,342 C21.5480902,342 22,342.455761 22,343.002473 L22,352.997527 Z M28,353.006602 C28,353.555241 27.5566468,354 26.9906311,354 L25.0093689,354 C24.4519098,354 24,353.555054 24,353.006602 L24,336.993398 C24,336.444759 24.4433532,336 25.0093689,336 L26.9906311,336 C27.5480902,336 28,336.444946 28,336.993398 L28,353.006602 Z" id="Shape" sketch:type="MSShapeGroup"></path>
        </g>
    </g>
</svg>