<?xml version="1.0" encoding="utf-8"?>
<!-- Generator: Adobe Illustrator 16.0.0, SVG Export Plug-In . SVG Version: 6.00 Build 0)  -->
<!DOCTYPE svg PUBLIC "-//W3C//DTD SVG 1.1//EN" "http://www.w3.org/Graphics/SVG/1.1/DTD/svg11.dtd">
<svg version="1.1" id="Layer_1" xmlns="http://www.w3.org/2000/svg" xmlns:xlink="http://www.w3.org/1999/xlink" x="0px" y="0px"
	 width="52px" height="52px" viewBox="0 0 52 52" enable-background="new 0 0 52 52" xml:space="preserve">
<g>
	<circle id="circle_1_" fill="none" cx="26" cy="25.938" r="25"/>
	<polygon fill="none" stroke="#FFFFFF" stroke-miterlimit="10" points="33.018,14.438 32.627,16.807 28.254,17.131 28.254,14.438 
		23.254,14.438 23.254,17.131 19.127,16.807 18.982,14.438 13,14.438 16.25,26.438 35.75,26.438 39,14.438 	"/>
	<g>
		<defs>
			<polygon id="SVGID_1_" points="33.018,13.938 32.877,16.557 28.754,17.131 28.754,13.938 23.754,13.938 23.754,17.131 
				19.377,16.557 18.982,13.938 13,13.938 16.25,25.938 35.75,25.938 39,13.938 			"/>
		</defs>
		<clipPath id="SVGID_2_">
			<use xlink:href="#SVGID_1_"  overflow="visible"/>
		</clipPath>
	</g>
	<g>
		<path fill="none" stroke="#FFFFFF" stroke-miterlimit="10" d="M51,25.938c0-13.807-11.193-25-25-25s-25,11.193-25,25
			C1,35.95,6.887,44.774,15.389,48.766l2.05-22.328h17l2.048,22.387C45.055,44.858,51,35.999,51,25.938z"/>
		<path fill="none" stroke="#FFFFFF" stroke-width="1.25" stroke-miterlimit="10" d="M36.486,48.637
			c-3.189,1.476-6.741,2.301-10.487,2.301c-3.794,0-7.39-0.847-10.611-2.359"/>
	</g>
	<path fill="none" d="M26.891,50.92c0.154-0.006,0.309-0.011,0.463-0.02c0.082-0.004,0.164-0.011,0.245-0.016
		c0.143-0.009,0.287-0.019,0.429-0.029c0.083-0.007,0.167-0.015,0.25-0.022c0.141-0.013,0.282-0.026,0.422-0.041
		c0.081-0.009,0.162-0.019,0.243-0.028c0.144-0.017,0.287-0.034,0.429-0.054c0.076-0.01,0.152-0.021,0.228-0.031
		c0.149-0.022,0.298-0.045,0.446-0.069c0.068-0.011,0.136-0.021,0.203-0.033c0.16-0.027,0.32-0.057,0.479-0.088
		c0.055-0.01,0.109-0.021,0.164-0.031c0.181-0.035,0.361-0.073,0.541-0.113c0.032-0.007,0.064-0.014,0.097-0.021
		c1.763-0.398,3.455-0.732,5.055-1.481l-2.146-21.903h-17L15.287,48.78c0.197,0.094,0.395,0.06,0.594,0.147
		c0.018,0.009,0.036-0.046,0.054-0.038c0.182,0.08,0.365,0.127,0.549,0.202c0.028,0.012,0.056,0.008,0.083,0.019
		c0.177,0.072,0.354,0.135,0.534,0.203c0.031,0.012,0.062,0.02,0.093,0.031c0.18,0.067,0.36,0.131,0.542,0.194
		c0.029,0.01,0.057,0.02,0.085,0.029c0.191,0.066,0.383,0.129,0.576,0.191c0.019,0.006,0.037,0.011,0.055,0.017
		c0.645,0.204,1.3,0.383,1.965,0.534c0.014,0.004,0.027,0.006,0.041,0.009c0.2,0.046,0.4,0.089,0.602,0.129
		c0.053,0.011,0.107,0.021,0.16,0.03c0.163,0.032,0.325,0.062,0.488,0.091c0.07,0.012,0.141,0.023,0.212,0.035
		c0.147,0.023,0.295,0.047,0.444,0.068c0.079,0.012,0.159,0.022,0.238,0.034c0.141,0.019,0.283,0.037,0.425,0.054
		c0.084,0.01,0.168,0.02,0.253,0.028c0.139,0.016,0.278,0.029,0.417,0.042c0.087,0.008,0.173,0.016,0.26,0.022
		c0.142,0.012,0.284,0.021,0.425,0.03c0.084,0.006,0.169,0.012,0.253,0.016c0.154,0.009,0.309,0.015,0.463,0.021
		c0.073,0.002,0.145,0.006,0.217,0.008c0.227,0.006,0.455,0.01,0.684,0.01c0.227,0,0.453-0.004,0.679-0.01
		C26.75,50.926,26.82,50.922,26.891,50.92z"/>
	<g id="flag_1_">
		<polygon id="pole_1_" fill="#FFFFFF" points="24.754,6.938 25.754,6.938 25.754,13.938 24.754,13.938 24.754,6.938 		"/>
		<polygon id="flag_green_1_" fill="#FFFFFF" points="29.523,7.912 30.564,6.938 24.754,6.938 24.754,8.938 30.543,8.938 
			29.523,7.912 		"/>
	</g>
	<path fill-rule="evenodd" clip-rule="evenodd" fill="#FFFFFF" d="M25.896,31.578c-5.367,0-4.674,8.359-4.684,11.359h9.368
		C30.571,39.938,31.264,31.578,25.896,31.578z M29.636,41.938h-7.414c0.008-2.431-0.542-9.082,3.707-9.082
		S29.628,39.507,29.636,41.938z"/>
	<rect x="20.754" y="41.938" fill="#FFFFFF" width="11" height="1"/>
</g>
<g>
</g>
<g>
</g>
<g>
</g>
<g>
</g>
<g>
</g>
<g>
</g>
<g>
</g>
<g>
</g>
<g>
</g>
<g>
</g>
<g>
</g>
<g>
</g>
<g>
</g>
<g>
</g>
<g>
</g>
</svg>
